<svg width="19" height="23" viewBox="0 0 19 23" fill="none" xmlns="http://www.w3.org/2000/svg">
<path fill-rule="evenodd" clip-rule="evenodd" d="M10.8565 0.191132H0V22.8089H10.8565V0.191132ZM9.0471 13.7618H5.42826V20.9995H9.0471V13.7618ZM1.80942 2.00055H4.52355V4.71468H1.80942V2.00055ZM4.52355 5.61939H1.80942V8.33352H4.52355V5.61939ZM1.80942 9.23823H4.52355V11.9524H1.80942V9.23823ZM9.0471 2.00055H6.33297V4.71468H9.0471V2.00055ZM6.33297 5.61939H9.0471V8.33352H6.33297V5.61939ZM9.0471 9.23823H6.33297V11.9524H9.0471V9.23823Z" fill="#7ED9B3"/>
<path fill-rule="evenodd" clip-rule="evenodd" d="M18.9989 8.33352H12.6659V22.8089H18.9989V8.33352ZM17.1895 10.1429H14.4754V12.8571H17.1895V10.1429ZM14.4754 13.7618H17.1895V16.4759H14.4754V13.7618ZM17.1895 17.3806H14.4754V20.0947H17.1895V17.3806Z" fill="#7ED9B3"/>
</svg>
